<mxfile host="Electron" agent="Mozilla/5.0 (X11; Linux x86_64) AppleWebKit/537.36 (KHTML, like Gecko) draw.io/27.0.9 Chrome/134.0.6998.205 Electron/35.6.0 Safari/537.36" version="27.0.9">
  <diagram name="Page-1" id="CrblgXhJM2iihVsTR_w1">
    <mxGraphModel dx="924" dy="394" grid="0" gridSize="10" guides="1" tooltips="1" connect="1" arrows="1" fold="1" page="1" pageScale="1" pageWidth="1100" pageHeight="850" background="none" math="0" shadow="0" adaptiveColors="auto">
      <root>
        <mxCell id="0" />
        <mxCell id="1" parent="0" />
        <mxCell id="un962oAQaWNZtfebDjYD-3" value="" style="shape=umlLifeline;perimeter=lifelinePerimeter;whiteSpace=wrap;html=1;container=1;dropTarget=0;collapsible=0;recursiveResize=0;outlineConnect=0;portConstraint=eastwest;newEdgeStyle={&quot;curved&quot;:0,&quot;rounded&quot;:0};participant=umlActor;" parent="1" vertex="1">
          <mxGeometry x="38" y="32" width="20" height="1232" as="geometry" />
        </mxCell>
        <mxCell id="un962oAQaWNZtfebDjYD-12" style="edgeStyle=orthogonalEdgeStyle;rounded=0;orthogonalLoop=1;jettySize=auto;html=1;" parent="1" source="un962oAQaWNZtfebDjYD-6" target="un962oAQaWNZtfebDjYD-8" edge="1">
          <mxGeometry relative="1" as="geometry" />
        </mxCell>
        <mxCell id="un962oAQaWNZtfebDjYD-40" value="gRPC" style="edgeLabel;html=1;align=center;verticalAlign=middle;resizable=0;points=[];" parent="un962oAQaWNZtfebDjYD-12" vertex="1" connectable="0">
          <mxGeometry x="-0.7094" y="3" relative="1" as="geometry">
            <mxPoint x="102" y="3" as="offset" />
          </mxGeometry>
        </mxCell>
        <mxCell id="un962oAQaWNZtfebDjYD-6" value="Auth" style="rounded=1;whiteSpace=wrap;html=1;absoluteArcSize=1;arcSize=14;strokeWidth=2;" parent="1" vertex="1">
          <mxGeometry x="230" y="88" width="85" height="43" as="geometry" />
        </mxCell>
        <mxCell id="un962oAQaWNZtfebDjYD-7" value="Users&lt;div&gt;DB&lt;/div&gt;" style="strokeWidth=2;html=1;shape=mxgraph.flowchart.database;whiteSpace=wrap;" parent="1" vertex="1">
          <mxGeometry x="820" y="80" width="60" height="68" as="geometry" />
        </mxCell>
        <mxCell id="un962oAQaWNZtfebDjYD-8" value="Users" style="rounded=1;whiteSpace=wrap;html=1;absoluteArcSize=1;arcSize=14;strokeWidth=2;" parent="1" vertex="1">
          <mxGeometry x="462" y="10" width="94" height="43" as="geometry" />
        </mxCell>
        <mxCell id="un962oAQaWNZtfebDjYD-9" value="Celery" style="rounded=1;whiteSpace=wrap;html=1;absoluteArcSize=1;arcSize=14;strokeWidth=2;" parent="1" vertex="1">
          <mxGeometry x="653" y="148" width="85" height="43" as="geometry" />
        </mxCell>
        <mxCell id="un962oAQaWNZtfebDjYD-22" style="edgeStyle=orthogonalEdgeStyle;rounded=0;orthogonalLoop=1;jettySize=auto;html=1;exitX=1;exitY=0.5;exitDx=0;exitDy=0;" parent="1" source="un962oAQaWNZtfebDjYD-8" target="un962oAQaWNZtfebDjYD-7" edge="1">
          <mxGeometry relative="1" as="geometry">
            <mxPoint x="545" y="74" as="sourcePoint" />
            <mxPoint x="675" y="74" as="targetPoint" />
          </mxGeometry>
        </mxCell>
        <mxCell id="un962oAQaWNZtfebDjYD-23" value="" style="endArrow=classic;html=1;rounded=0;" parent="1" source="un962oAQaWNZtfebDjYD-9" target="un962oAQaWNZtfebDjYD-3" edge="1">
          <mxGeometry relative="1" as="geometry">
            <mxPoint x="458" y="170" as="sourcePoint" />
            <mxPoint x="90" y="174" as="targetPoint" />
          </mxGeometry>
        </mxCell>
        <mxCell id="un962oAQaWNZtfebDjYD-24" value="" style="shape=message;html=1;outlineConnect=0;" parent="un962oAQaWNZtfebDjYD-23" vertex="1">
          <mxGeometry width="20" height="14" relative="1" as="geometry">
            <mxPoint x="-10" y="-7" as="offset" />
          </mxGeometry>
        </mxCell>
        <mxCell id="un962oAQaWNZtfebDjYD-28" value="" style="endArrow=classic;html=1;rounded=0;" parent="1" source="un962oAQaWNZtfebDjYD-37" target="un962oAQaWNZtfebDjYD-9" edge="1">
          <mxGeometry width="50" height="50" relative="1" as="geometry">
            <mxPoint x="502" y="98" as="sourcePoint" />
            <mxPoint x="502" y="149" as="targetPoint" />
          </mxGeometry>
        </mxCell>
        <mxCell id="un962oAQaWNZtfebDjYD-85" style="edgeStyle=orthogonalEdgeStyle;rounded=0;orthogonalLoop=1;jettySize=auto;html=1;exitX=0.647;exitY=0.977;exitDx=0;exitDy=0;exitPerimeter=0;" parent="1" source="un962oAQaWNZtfebDjYD-30" target="un962oAQaWNZtfebDjYD-86" edge="1">
          <mxGeometry relative="1" as="geometry">
            <mxPoint x="315" y="451" as="targetPoint" />
          </mxGeometry>
        </mxCell>
        <mxCell id="fX9wjA_ceiBuTS8Tz4yJ-1" style="edgeStyle=orthogonalEdgeStyle;rounded=0;orthogonalLoop=1;jettySize=auto;html=1;exitX=1;exitY=0.5;exitDx=0;exitDy=0;" parent="1" source="un962oAQaWNZtfebDjYD-30" target="un962oAQaWNZtfebDjYD-51" edge="1">
          <mxGeometry relative="1" as="geometry" />
        </mxCell>
        <mxCell id="fX9wjA_ceiBuTS8Tz4yJ-2" style="edgeStyle=orthogonalEdgeStyle;rounded=0;orthogonalLoop=1;jettySize=auto;html=1;exitX=1;exitY=1;exitDx=0;exitDy=0;" parent="1" source="un962oAQaWNZtfebDjYD-30" target="un962oAQaWNZtfebDjYD-48" edge="1">
          <mxGeometry relative="1" as="geometry" />
        </mxCell>
        <mxCell id="un962oAQaWNZtfebDjYD-30" value="Upload" style="rounded=1;whiteSpace=wrap;html=1;absoluteArcSize=1;arcSize=14;strokeWidth=2;" parent="1" vertex="1">
          <mxGeometry x="230" y="271" width="85" height="43" as="geometry" />
        </mxCell>
        <mxCell id="un962oAQaWNZtfebDjYD-38" value="" style="endArrow=classic;html=1;rounded=0;" parent="1" source="un962oAQaWNZtfebDjYD-8" target="un962oAQaWNZtfebDjYD-37" edge="1">
          <mxGeometry width="50" height="50" relative="1" as="geometry">
            <mxPoint x="700" y="53" as="sourcePoint" />
            <mxPoint x="396" y="148" as="targetPoint" />
          </mxGeometry>
        </mxCell>
        <mxCell id="un962oAQaWNZtfebDjYD-37" value="Broker&lt;div&gt;backend&lt;/div&gt;" style="image;sketch=0;aspect=fixed;html=1;points=[];align=center;fontSize=12;image=img/lib/mscae/Cache_Redis_Product.svg;" parent="1" vertex="1">
          <mxGeometry x="737" y="59" width="53.57" height="45" as="geometry" />
        </mxCell>
        <mxCell id="un962oAQaWNZtfebDjYD-43" value="&lt;div&gt;&lt;br&gt;&lt;/div&gt;" style="edgeStyle=none;orthogonalLoop=1;jettySize=auto;html=1;rounded=0;" parent="1" source="un962oAQaWNZtfebDjYD-3" target="un962oAQaWNZtfebDjYD-6" edge="1">
          <mxGeometry width="100" relative="1" as="geometry">
            <mxPoint x="85" y="112" as="sourcePoint" />
            <mxPoint x="214" y="53" as="targetPoint" />
            <Array as="points">
              <mxPoint x="140" y="112" />
            </Array>
          </mxGeometry>
        </mxCell>
        <mxCell id="un962oAQaWNZtfebDjYD-46" value="upload&lt;div&gt;session&lt;/div&gt;" style="image;sketch=0;aspect=fixed;html=1;points=[];align=center;fontSize=12;image=img/lib/mscae/Cache_Redis_Product.svg;" parent="1" vertex="1">
          <mxGeometry x="447" y="325" width="50" height="42" as="geometry" />
        </mxCell>
        <mxCell id="un962oAQaWNZtfebDjYD-55" value="" style="edgeStyle=orthogonalEdgeStyle;rounded=0;orthogonalLoop=1;jettySize=auto;html=1;" parent="1" source="un962oAQaWNZtfebDjYD-48" target="un962oAQaWNZtfebDjYD-53" edge="1">
          <mxGeometry relative="1" as="geometry">
            <mxPoint x="590.8" y="466" as="targetPoint" />
          </mxGeometry>
        </mxCell>
        <mxCell id="un962oAQaWNZtfebDjYD-48" value="Raw" style="sketch=0;outlineConnect=0;fontColor=#232F3E;gradientColor=none;fillColor=#7AA116;strokeColor=none;dashed=0;verticalLabelPosition=bottom;verticalAlign=top;align=center;html=1;fontSize=12;fontStyle=0;aspect=fixed;pointerEvents=1;shape=mxgraph.aws4.bucket;" parent="1" vertex="1">
          <mxGeometry x="327" y="367" width="71.16" height="74" as="geometry" />
        </mxCell>
        <mxCell id="fX9wjA_ceiBuTS8Tz4yJ-59" style="edgeStyle=orthogonalEdgeStyle;rounded=0;orthogonalLoop=1;jettySize=auto;html=1;exitX=0;exitY=0.15;exitDx=0;exitDy=0;exitPerimeter=0;entryX=1;entryY=0.5;entryDx=0;entryDy=0;" parent="1" source="un962oAQaWNZtfebDjYD-51" target="fX9wjA_ceiBuTS8Tz4yJ-56" edge="1">
          <mxGeometry relative="1" as="geometry">
            <Array as="points">
              <mxPoint x="993" y="269" />
              <mxPoint x="993" y="217" />
            </Array>
          </mxGeometry>
        </mxCell>
        <mxCell id="un962oAQaWNZtfebDjYD-51" value="Videos&lt;div&gt;DB&lt;/div&gt;" style="strokeWidth=2;html=1;shape=mxgraph.flowchart.database;whiteSpace=wrap;" parent="1" vertex="1">
          <mxGeometry x="963" y="259" width="60" height="67" as="geometry" />
        </mxCell>
        <mxCell id="un962oAQaWNZtfebDjYD-59" value="" style="edgeStyle=orthogonalEdgeStyle;rounded=0;orthogonalLoop=1;jettySize=auto;html=1;" parent="1" source="un962oAQaWNZtfebDjYD-53" target="un962oAQaWNZtfebDjYD-56" edge="1">
          <mxGeometry relative="1" as="geometry">
            <mxPoint x="791" y="457" as="targetPoint" />
          </mxGeometry>
        </mxCell>
        <mxCell id="un962oAQaWNZtfebDjYD-53" value="Upload Queue" style="sketch=0;outlineConnect=0;fontColor=#232F3E;gradientColor=none;fillColor=#E7157B;strokeColor=none;dashed=0;verticalLabelPosition=bottom;verticalAlign=top;align=center;html=1;fontSize=12;fontStyle=0;aspect=fixed;pointerEvents=1;shape=mxgraph.aws4.queue;" parent="1" vertex="1">
          <mxGeometry x="556" y="380.5" width="78" height="47" as="geometry" />
        </mxCell>
        <mxCell id="un962oAQaWNZtfebDjYD-57" style="edgeStyle=orthogonalEdgeStyle;rounded=0;orthogonalLoop=1;jettySize=auto;html=1;" parent="1" source="un962oAQaWNZtfebDjYD-56" target="un962oAQaWNZtfebDjYD-60" edge="1">
          <mxGeometry relative="1" as="geometry">
            <mxPoint x="926" y="488" as="targetPoint" />
          </mxGeometry>
        </mxCell>
        <mxCell id="fX9wjA_ceiBuTS8Tz4yJ-38" style="edgeStyle=orthogonalEdgeStyle;rounded=0;orthogonalLoop=1;jettySize=auto;html=1;exitX=1;exitY=0.5;exitDx=0;exitDy=0;" parent="1" source="un962oAQaWNZtfebDjYD-56" target="fX9wjA_ceiBuTS8Tz4yJ-36" edge="1">
          <mxGeometry relative="1" as="geometry" />
        </mxCell>
        <mxCell id="un962oAQaWNZtfebDjYD-56" value="Iframebreaker" style="rounded=1;whiteSpace=wrap;html=1;absoluteArcSize=1;arcSize=14;strokeWidth=2;" parent="1" vertex="1">
          <mxGeometry x="725" y="382.5" width="122" height="43" as="geometry" />
        </mxCell>
        <mxCell id="un962oAQaWNZtfebDjYD-61" style="edgeStyle=orthogonalEdgeStyle;rounded=0;orthogonalLoop=1;jettySize=auto;html=1;" parent="1" source="un962oAQaWNZtfebDjYD-60" target="un962oAQaWNZtfebDjYD-62" edge="1">
          <mxGeometry relative="1" as="geometry">
            <mxPoint x="855" y="591" as="targetPoint" />
          </mxGeometry>
        </mxCell>
        <mxCell id="un962oAQaWNZtfebDjYD-60" value="Trascode Queue" style="sketch=0;outlineConnect=0;fontColor=#232F3E;gradientColor=none;fillColor=#E7157B;strokeColor=none;dashed=0;verticalLabelPosition=bottom;verticalAlign=top;align=center;html=1;fontSize=12;fontStyle=0;aspect=fixed;pointerEvents=1;shape=mxgraph.aws4.queue;" parent="1" vertex="1">
          <mxGeometry x="747" y="467" width="78" height="47" as="geometry" />
        </mxCell>
        <mxCell id="fX9wjA_ceiBuTS8Tz4yJ-37" style="edgeStyle=orthogonalEdgeStyle;rounded=0;orthogonalLoop=1;jettySize=auto;html=1;exitX=1;exitY=0.5;exitDx=0;exitDy=0;" parent="1" source="un962oAQaWNZtfebDjYD-62" target="fX9wjA_ceiBuTS8Tz4yJ-36" edge="1">
          <mxGeometry relative="1" as="geometry" />
        </mxCell>
        <mxCell id="un962oAQaWNZtfebDjYD-62" value="Transcoder" style="rounded=1;whiteSpace=wrap;html=1;absoluteArcSize=1;arcSize=14;strokeWidth=2;" parent="1" vertex="1">
          <mxGeometry x="408" y="581.5" width="253" height="55.5" as="geometry" />
        </mxCell>
        <mxCell id="un962oAQaWNZtfebDjYD-63" value="" style="aspect=fixed;sketch=0;html=1;dashed=0;whitespace=wrap;verticalLabelPosition=bottom;verticalAlign=top;fillColor=#2875E2;strokeColor=#ffffff;points=[[0.005,0.63,0],[0.1,0.2,0],[0.9,0.2,0],[0.5,0,0],[0.995,0.63,0],[0.72,0.99,0],[0.5,1,0],[0.28,0.99,0]];shape=mxgraph.kubernetes.icon2;kubernetesLabel=1;prIcon=job" parent="1" vertex="1">
          <mxGeometry x="371" y="719" width="50" height="48" as="geometry" />
        </mxCell>
        <mxCell id="un962oAQaWNZtfebDjYD-67" value="" style="aspect=fixed;sketch=0;html=1;dashed=0;whitespace=wrap;verticalLabelPosition=bottom;verticalAlign=top;fillColor=#2875E2;strokeColor=#ffffff;points=[[0.005,0.63,0],[0.1,0.2,0],[0.9,0.2,0],[0.5,0,0],[0.995,0.63,0],[0.72,0.99,0],[0.5,1,0],[0.28,0.99,0]];shape=mxgraph.kubernetes.icon2;kubernetesLabel=1;prIcon=job" parent="1" vertex="1">
          <mxGeometry x="520" y="719" width="50" height="48" as="geometry" />
        </mxCell>
        <mxCell id="un962oAQaWNZtfebDjYD-73" value="&lt;b&gt;&lt;font style=&quot;font-size: 19px;&quot;&gt;. . . .&lt;/font&gt;&lt;/b&gt;" style="text;html=1;align=center;verticalAlign=middle;resizable=0;points=[];autosize=1;strokeColor=none;fillColor=none;dashed=1;dashPattern=1 4;" parent="1" vertex="1">
          <mxGeometry x="594" y="725.5" width="53" height="35" as="geometry" />
        </mxCell>
        <mxCell id="fX9wjA_ceiBuTS8Tz4yJ-42" style="edgeStyle=orthogonalEdgeStyle;rounded=0;orthogonalLoop=1;jettySize=auto;html=1;entryX=0;entryY=0.5;entryDx=0;entryDy=0;" parent="1" source="un962oAQaWNZtfebDjYD-74" target="un962oAQaWNZtfebDjYD-107" edge="1">
          <mxGeometry relative="1" as="geometry">
            <Array as="points">
              <mxPoint x="282" y="1099" />
            </Array>
          </mxGeometry>
        </mxCell>
        <mxCell id="un962oAQaWNZtfebDjYD-74" value="Transocde&lt;div&gt;Session&lt;/div&gt;" style="image;sketch=0;aspect=fixed;html=1;points=[];align=center;fontSize=12;image=img/lib/mscae/Cache_Redis_Product.svg;" parent="1" vertex="1">
          <mxGeometry x="255" y="805.14" width="53.4" height="44.86" as="geometry" />
        </mxCell>
        <mxCell id="un962oAQaWNZtfebDjYD-84" value="Stream" style="sketch=0;outlineConnect=0;fontColor=#232F3E;gradientColor=none;fillColor=#7AA116;strokeColor=none;dashed=0;verticalLabelPosition=bottom;verticalAlign=top;align=center;html=1;fontSize=12;fontStyle=0;aspect=fixed;pointerEvents=1;shape=mxgraph.aws4.bucket_with_objects;" parent="1" vertex="1">
          <mxGeometry x="788" y="826" width="76.92" height="80" as="geometry" />
        </mxCell>
        <mxCell id="un962oAQaWNZtfebDjYD-86" value="Thumbnail" style="sketch=0;outlineConnect=0;fontColor=#232F3E;gradientColor=none;fillColor=#7AA116;strokeColor=none;dashed=0;verticalLabelPosition=bottom;verticalAlign=top;align=center;html=1;fontSize=12;fontStyle=0;aspect=fixed;pointerEvents=1;shape=mxgraph.aws4.bucket;" parent="1" vertex="1">
          <mxGeometry x="255.38" y="540" width="59.62" height="62" as="geometry" />
        </mxCell>
        <mxCell id="fX9wjA_ceiBuTS8Tz4yJ-41" style="edgeStyle=orthogonalEdgeStyle;rounded=0;orthogonalLoop=1;jettySize=auto;html=1;" parent="1" source="un962oAQaWNZtfebDjYD-101" target="un962oAQaWNZtfebDjYD-107" edge="1">
          <mxGeometry relative="1" as="geometry" />
        </mxCell>
        <mxCell id="un962oAQaWNZtfebDjYD-101" value="Playlist Queue" style="sketch=0;outlineConnect=0;fontColor=#232F3E;gradientColor=none;fillColor=#E7157B;strokeColor=none;dashed=0;verticalLabelPosition=bottom;verticalAlign=top;align=center;html=1;fontSize=12;fontStyle=0;aspect=fixed;pointerEvents=1;shape=mxgraph.aws4.queue;" parent="1" vertex="1">
          <mxGeometry x="579" y="941" width="74.68" height="45" as="geometry" />
        </mxCell>
        <mxCell id="un962oAQaWNZtfebDjYD-110" style="edgeStyle=orthogonalEdgeStyle;rounded=0;orthogonalLoop=1;jettySize=auto;html=1;" parent="1" source="un962oAQaWNZtfebDjYD-107" target="un962oAQaWNZtfebDjYD-84" edge="1">
          <mxGeometry relative="1" as="geometry" />
        </mxCell>
        <mxCell id="un962oAQaWNZtfebDjYD-112" style="edgeStyle=orthogonalEdgeStyle;rounded=0;orthogonalLoop=1;jettySize=auto;html=1;exitX=0.5;exitY=1;exitDx=0;exitDy=0;" parent="1" source="un962oAQaWNZtfebDjYD-107" target="un962oAQaWNZtfebDjYD-111" edge="1">
          <mxGeometry relative="1" as="geometry" />
        </mxCell>
        <mxCell id="un962oAQaWNZtfebDjYD-107" value="Playlist" style="rounded=1;whiteSpace=wrap;html=1;absoluteArcSize=1;arcSize=14;strokeWidth=2;" parent="1" vertex="1">
          <mxGeometry x="573.84" y="1077" width="85" height="43" as="geometry" />
        </mxCell>
        <mxCell id="un962oAQaWNZtfebDjYD-114" style="edgeStyle=orthogonalEdgeStyle;rounded=0;orthogonalLoop=1;jettySize=auto;html=1;entryX=0.5;entryY=0;entryDx=0;entryDy=0;" parent="1" source="un962oAQaWNZtfebDjYD-111" target="un962oAQaWNZtfebDjYD-113" edge="1">
          <mxGeometry relative="1" as="geometry" />
        </mxCell>
        <mxCell id="un962oAQaWNZtfebDjYD-111" value="Finish Queue" style="sketch=0;outlineConnect=0;fontColor=#232F3E;gradientColor=none;fillColor=#E7157B;strokeColor=none;dashed=0;verticalLabelPosition=bottom;verticalAlign=top;align=center;html=1;fontSize=12;fontStyle=0;aspect=fixed;pointerEvents=1;shape=mxgraph.aws4.queue;" parent="1" vertex="1">
          <mxGeometry x="577.34" y="1177" width="78" height="47" as="geometry" />
        </mxCell>
        <mxCell id="un962oAQaWNZtfebDjYD-113" value="Finalizer" style="rounded=1;whiteSpace=wrap;html=1;absoluteArcSize=1;arcSize=14;strokeWidth=2;" parent="1" vertex="1">
          <mxGeometry x="291" y="1238" width="85" height="43" as="geometry" />
        </mxCell>
        <mxCell id="un962oAQaWNZtfebDjYD-115" style="edgeStyle=orthogonalEdgeStyle;rounded=0;orthogonalLoop=1;jettySize=auto;html=1;entryX=1;entryY=0.5;entryDx=0;entryDy=0;entryPerimeter=0;" parent="1" source="un962oAQaWNZtfebDjYD-113" target="un962oAQaWNZtfebDjYD-51" edge="1">
          <mxGeometry relative="1" as="geometry">
            <Array as="points">
              <mxPoint x="1042" y="1259" />
              <mxPoint x="1042" y="293" />
            </Array>
          </mxGeometry>
        </mxCell>
        <mxCell id="un962oAQaWNZtfebDjYD-68" value="" style="aspect=fixed;sketch=0;html=1;dashed=0;whitespace=wrap;verticalLabelPosition=bottom;verticalAlign=top;fillColor=#2875E2;strokeColor=#ffffff;points=[[0.005,0.63,0],[0.1,0.2,0],[0.9,0.2,0],[0.5,0,0],[0.995,0.63,0],[0.72,0.99,0],[0.5,1,0],[0.28,0.99,0]];shape=mxgraph.kubernetes.icon2;kubernetesLabel=1;prIcon=job" parent="1" vertex="1">
          <mxGeometry x="447" y="719" width="50" height="48" as="geometry" />
        </mxCell>
        <mxCell id="fX9wjA_ceiBuTS8Tz4yJ-6" value="" style="aspect=fixed;sketch=0;html=1;dashed=0;whitespace=wrap;verticalLabelPosition=bottom;verticalAlign=top;fillColor=#2875E2;strokeColor=#ffffff;points=[[0.005,0.63,0],[0.1,0.2,0],[0.9,0.2,0],[0.5,0,0],[0.995,0.63,0],[0.72,0.99,0],[0.5,1,0],[0.28,0.99,0]];shape=mxgraph.kubernetes.icon2;kubernetesLabel=1;prIcon=job" parent="1" vertex="1">
          <mxGeometry x="665" y="719" width="50" height="48" as="geometry" />
        </mxCell>
        <mxCell id="fX9wjA_ceiBuTS8Tz4yJ-9" style="edgeStyle=orthogonalEdgeStyle;rounded=0;orthogonalLoop=1;jettySize=auto;html=1;exitX=0.25;exitY=1;exitDx=0;exitDy=0;entryX=0.5;entryY=0;entryDx=0;entryDy=0;entryPerimeter=0;" parent="1" source="un962oAQaWNZtfebDjYD-62" target="un962oAQaWNZtfebDjYD-68" edge="1">
          <mxGeometry relative="1" as="geometry" />
        </mxCell>
        <mxCell id="fX9wjA_ceiBuTS8Tz4yJ-12" style="edgeStyle=orthogonalEdgeStyle;rounded=0;orthogonalLoop=1;jettySize=auto;html=1;exitX=0;exitY=1;exitDx=0;exitDy=0;entryX=0.5;entryY=0;entryDx=0;entryDy=0;entryPerimeter=0;" parent="1" source="un962oAQaWNZtfebDjYD-62" target="un962oAQaWNZtfebDjYD-63" edge="1">
          <mxGeometry relative="1" as="geometry" />
        </mxCell>
        <mxCell id="fX9wjA_ceiBuTS8Tz4yJ-13" style="edgeStyle=orthogonalEdgeStyle;rounded=0;orthogonalLoop=1;jettySize=auto;html=1;exitX=0.5;exitY=1;exitDx=0;exitDy=0;entryX=0.5;entryY=0;entryDx=0;entryDy=0;entryPerimeter=0;" parent="1" source="un962oAQaWNZtfebDjYD-62" target="un962oAQaWNZtfebDjYD-67" edge="1">
          <mxGeometry relative="1" as="geometry" />
        </mxCell>
        <mxCell id="fX9wjA_ceiBuTS8Tz4yJ-14" style="edgeStyle=orthogonalEdgeStyle;rounded=0;orthogonalLoop=1;jettySize=auto;html=1;exitX=0.75;exitY=1;exitDx=0;exitDy=0;entryX=0.5;entryY=0;entryDx=0;entryDy=0;entryPerimeter=0;" parent="1" source="un962oAQaWNZtfebDjYD-62" target="fX9wjA_ceiBuTS8Tz4yJ-6" edge="1">
          <mxGeometry relative="1" as="geometry" />
        </mxCell>
        <mxCell id="fX9wjA_ceiBuTS8Tz4yJ-15" style="edgeStyle=orthogonalEdgeStyle;rounded=0;orthogonalLoop=1;jettySize=auto;html=1;exitX=0.5;exitY=1;exitDx=0;exitDy=0;exitPerimeter=0;entryX=0.006;entryY=0.746;entryDx=0;entryDy=0;entryPerimeter=0;" parent="1" source="un962oAQaWNZtfebDjYD-63" target="un962oAQaWNZtfebDjYD-101" edge="1">
          <mxGeometry relative="1" as="geometry" />
        </mxCell>
        <mxCell id="fX9wjA_ceiBuTS8Tz4yJ-17" style="edgeStyle=orthogonalEdgeStyle;rounded=0;orthogonalLoop=1;jettySize=auto;html=1;exitX=0.5;exitY=1;exitDx=0;exitDy=0;exitPerimeter=0;entryX=0.005;entryY=0.62;entryDx=0;entryDy=0;entryPerimeter=0;" parent="1" source="un962oAQaWNZtfebDjYD-68" target="un962oAQaWNZtfebDjYD-101" edge="1">
          <mxGeometry relative="1" as="geometry" />
        </mxCell>
        <mxCell id="fX9wjA_ceiBuTS8Tz4yJ-18" style="edgeStyle=orthogonalEdgeStyle;rounded=0;orthogonalLoop=1;jettySize=auto;html=1;exitX=0.5;exitY=1;exitDx=0;exitDy=0;exitPerimeter=0;entryX=-0.003;entryY=0.534;entryDx=0;entryDy=0;entryPerimeter=0;" parent="1" source="un962oAQaWNZtfebDjYD-67" target="un962oAQaWNZtfebDjYD-101" edge="1">
          <mxGeometry relative="1" as="geometry" />
        </mxCell>
        <mxCell id="fX9wjA_ceiBuTS8Tz4yJ-21" style="edgeStyle=orthogonalEdgeStyle;rounded=0;orthogonalLoop=1;jettySize=auto;html=1;exitX=0.5;exitY=1;exitDx=0;exitDy=0;exitPerimeter=0;entryX=1.007;entryY=0.663;entryDx=0;entryDy=0;entryPerimeter=0;" parent="1" source="fX9wjA_ceiBuTS8Tz4yJ-6" target="un962oAQaWNZtfebDjYD-101" edge="1">
          <mxGeometry relative="1" as="geometry" />
        </mxCell>
        <mxCell id="fX9wjA_ceiBuTS8Tz4yJ-23" style="edgeStyle=orthogonalEdgeStyle;rounded=0;orthogonalLoop=1;jettySize=auto;html=1;exitX=0.72;exitY=0.99;exitDx=0;exitDy=0;exitPerimeter=0;entryX=0.011;entryY=0.82;entryDx=0;entryDy=0;entryPerimeter=0;" parent="1" source="un962oAQaWNZtfebDjYD-63" target="un962oAQaWNZtfebDjYD-84" edge="1">
          <mxGeometry relative="1" as="geometry" />
        </mxCell>
        <mxCell id="fX9wjA_ceiBuTS8Tz4yJ-25" style="edgeStyle=orthogonalEdgeStyle;rounded=0;orthogonalLoop=1;jettySize=auto;html=1;exitX=0.72;exitY=0.99;exitDx=0;exitDy=0;exitPerimeter=0;entryX=-0.013;entryY=0.695;entryDx=0;entryDy=0;entryPerimeter=0;" parent="1" source="un962oAQaWNZtfebDjYD-68" target="un962oAQaWNZtfebDjYD-84" edge="1">
          <mxGeometry relative="1" as="geometry" />
        </mxCell>
        <mxCell id="fX9wjA_ceiBuTS8Tz4yJ-27" style="edgeStyle=orthogonalEdgeStyle;rounded=0;orthogonalLoop=1;jettySize=auto;html=1;exitX=0.72;exitY=0.99;exitDx=0;exitDy=0;exitPerimeter=0;entryX=-0.01;entryY=0.577;entryDx=0;entryDy=0;entryPerimeter=0;" parent="1" source="un962oAQaWNZtfebDjYD-67" target="un962oAQaWNZtfebDjYD-84" edge="1">
          <mxGeometry relative="1" as="geometry" />
        </mxCell>
        <mxCell id="fX9wjA_ceiBuTS8Tz4yJ-28" style="edgeStyle=orthogonalEdgeStyle;rounded=0;orthogonalLoop=1;jettySize=auto;html=1;exitX=0.72;exitY=0.99;exitDx=0;exitDy=0;exitPerimeter=0;entryX=-0.01;entryY=0.486;entryDx=0;entryDy=0;entryPerimeter=0;" parent="1" source="fX9wjA_ceiBuTS8Tz4yJ-6" target="un962oAQaWNZtfebDjYD-84" edge="1">
          <mxGeometry relative="1" as="geometry" />
        </mxCell>
        <mxCell id="fX9wjA_ceiBuTS8Tz4yJ-29" style="edgeStyle=orthogonalEdgeStyle;rounded=0;orthogonalLoop=1;jettySize=auto;html=1;exitX=0.28;exitY=0.99;exitDx=0;exitDy=0;exitPerimeter=0;entryX=0.995;entryY=0.776;entryDx=0;entryDy=0;entryPerimeter=0;" parent="1" source="fX9wjA_ceiBuTS8Tz4yJ-6" target="un962oAQaWNZtfebDjYD-74" edge="1">
          <mxGeometry relative="1" as="geometry" />
        </mxCell>
        <mxCell id="fX9wjA_ceiBuTS8Tz4yJ-30" style="edgeStyle=orthogonalEdgeStyle;rounded=0;orthogonalLoop=1;jettySize=auto;html=1;exitX=0.28;exitY=0.99;exitDx=0;exitDy=0;exitPerimeter=0;entryX=0.995;entryY=0.497;entryDx=0;entryDy=0;entryPerimeter=0;" parent="1" source="un962oAQaWNZtfebDjYD-67" target="un962oAQaWNZtfebDjYD-74" edge="1">
          <mxGeometry relative="1" as="geometry" />
        </mxCell>
        <mxCell id="fX9wjA_ceiBuTS8Tz4yJ-31" style="edgeStyle=orthogonalEdgeStyle;rounded=0;orthogonalLoop=1;jettySize=auto;html=1;exitX=0.28;exitY=0.99;exitDx=0;exitDy=0;exitPerimeter=0;entryX=1.015;entryY=0.24;entryDx=0;entryDy=0;entryPerimeter=0;" parent="1" source="un962oAQaWNZtfebDjYD-68" target="un962oAQaWNZtfebDjYD-74" edge="1">
          <mxGeometry relative="1" as="geometry" />
        </mxCell>
        <mxCell id="fX9wjA_ceiBuTS8Tz4yJ-32" style="edgeStyle=orthogonalEdgeStyle;rounded=0;orthogonalLoop=1;jettySize=auto;html=1;exitX=0.28;exitY=0.99;exitDx=0;exitDy=0;exitPerimeter=0;entryX=1.013;entryY=0.035;entryDx=0;entryDy=0;entryPerimeter=0;" parent="1" source="un962oAQaWNZtfebDjYD-63" target="un962oAQaWNZtfebDjYD-74" edge="1">
          <mxGeometry relative="1" as="geometry" />
        </mxCell>
        <mxCell id="fX9wjA_ceiBuTS8Tz4yJ-33" value="Status" style="rounded=1;whiteSpace=wrap;html=1;absoluteArcSize=1;arcSize=14;strokeWidth=2;" parent="1" vertex="1">
          <mxGeometry x="834.5" y="717.5" width="103" height="43" as="geometry" />
        </mxCell>
        <mxCell id="fX9wjA_ceiBuTS8Tz4yJ-39" style="edgeStyle=orthogonalEdgeStyle;rounded=0;orthogonalLoop=1;jettySize=auto;html=1;entryX=0.5;entryY=0;entryDx=0;entryDy=0;" parent="1" source="fX9wjA_ceiBuTS8Tz4yJ-36" target="fX9wjA_ceiBuTS8Tz4yJ-33" edge="1">
          <mxGeometry relative="1" as="geometry" />
        </mxCell>
        <mxCell id="fX9wjA_ceiBuTS8Tz4yJ-36" value="Status Queue" style="sketch=0;outlineConnect=0;fontColor=#232F3E;gradientColor=none;fillColor=#E7157B;strokeColor=none;dashed=0;verticalLabelPosition=bottom;verticalAlign=top;align=center;html=1;fontSize=12;fontStyle=0;aspect=fixed;pointerEvents=1;shape=mxgraph.aws4.queue;" parent="1" vertex="1">
          <mxGeometry x="847" y="585.75" width="78" height="47" as="geometry" />
        </mxCell>
        <mxCell id="fX9wjA_ceiBuTS8Tz4yJ-43" style="edgeStyle=orthogonalEdgeStyle;rounded=0;orthogonalLoop=1;jettySize=auto;html=1;exitX=0;exitY=0.5;exitDx=0;exitDy=0;entryX=-0.009;entryY=0.481;entryDx=0;entryDy=0;entryPerimeter=0;" parent="1" source="un962oAQaWNZtfebDjYD-113" target="un962oAQaWNZtfebDjYD-74" edge="1">
          <mxGeometry relative="1" as="geometry" />
        </mxCell>
        <mxCell id="fX9wjA_ceiBuTS8Tz4yJ-47" style="edgeStyle=orthogonalEdgeStyle;rounded=0;orthogonalLoop=1;jettySize=auto;html=1;exitX=1;exitY=0.5;exitDx=0;exitDy=0;entryX=0.238;entryY=0.997;entryDx=0;entryDy=0;entryPerimeter=0;" parent="1" source="fX9wjA_ceiBuTS8Tz4yJ-33" target="un962oAQaWNZtfebDjYD-51" edge="1">
          <mxGeometry relative="1" as="geometry" />
        </mxCell>
        <mxCell id="fX9wjA_ceiBuTS8Tz4yJ-48" value="" style="edgeStyle=none;orthogonalLoop=1;jettySize=auto;html=1;rounded=0;entryX=0;entryY=0.5;entryDx=0;entryDy=0;" parent="1" source="un962oAQaWNZtfebDjYD-3" target="un962oAQaWNZtfebDjYD-30" edge="1">
          <mxGeometry width="100" relative="1" as="geometry">
            <mxPoint x="90" y="298" as="sourcePoint" />
            <mxPoint x="190" y="298" as="targetPoint" />
            <Array as="points" />
          </mxGeometry>
        </mxCell>
        <mxCell id="fX9wjA_ceiBuTS8Tz4yJ-49" value="" style="edgeStyle=none;orthogonalLoop=1;jettySize=auto;html=1;rounded=0;" parent="1" edge="1">
          <mxGeometry width="100" relative="1" as="geometry">
            <mxPoint x="46.671818181818246" y="570.0938241149131" as="sourcePoint" />
            <mxPoint x="255.3775849467736" y="570.0938241149131" as="targetPoint" />
            <Array as="points" />
          </mxGeometry>
        </mxCell>
        <mxCell id="fX9wjA_ceiBuTS8Tz4yJ-50" value="Thumbnail" style="edgeLabel;html=1;align=center;verticalAlign=middle;resizable=0;points=[];" parent="fX9wjA_ceiBuTS8Tz4yJ-49" vertex="1" connectable="0">
          <mxGeometry x="-0.0709" y="3" relative="1" as="geometry">
            <mxPoint x="3" as="offset" />
          </mxGeometry>
        </mxCell>
        <mxCell id="fX9wjA_ceiBuTS8Tz4yJ-51" value="Part 1" style="edgeStyle=none;orthogonalLoop=1;jettySize=auto;html=1;rounded=0;entryX=-0.073;entryY=0.119;entryDx=0;entryDy=0;entryPerimeter=0;" parent="1" source="un962oAQaWNZtfebDjYD-3" target="un962oAQaWNZtfebDjYD-48" edge="1">
          <mxGeometry width="100" relative="1" as="geometry">
            <mxPoint x="39" y="390" as="sourcePoint" />
            <mxPoint x="139" y="390" as="targetPoint" />
            <Array as="points" />
          </mxGeometry>
        </mxCell>
        <mxCell id="fX9wjA_ceiBuTS8Tz4yJ-52" value="Part 2" style="edgeStyle=none;orthogonalLoop=1;jettySize=auto;html=1;rounded=0;entryX=-0.035;entryY=0.34;entryDx=0;entryDy=0;entryPerimeter=0;" parent="1" source="un962oAQaWNZtfebDjYD-3" target="un962oAQaWNZtfebDjYD-48" edge="1">
          <mxGeometry width="100" relative="1" as="geometry">
            <mxPoint x="94" y="433" as="sourcePoint" />
            <mxPoint x="194" y="433" as="targetPoint" />
            <Array as="points" />
          </mxGeometry>
        </mxCell>
        <mxCell id="fX9wjA_ceiBuTS8Tz4yJ-53" value="Part 3" style="edgeStyle=none;orthogonalLoop=1;jettySize=auto;html=1;rounded=0;entryX=-0.035;entryY=0.586;entryDx=0;entryDy=0;entryPerimeter=0;" parent="1" source="un962oAQaWNZtfebDjYD-3" target="un962oAQaWNZtfebDjYD-48" edge="1">
          <mxGeometry width="100" relative="1" as="geometry">
            <mxPoint x="125" y="497" as="sourcePoint" />
            <mxPoint x="225" y="497" as="targetPoint" />
            <Array as="points" />
          </mxGeometry>
        </mxCell>
        <mxCell id="fX9wjA_ceiBuTS8Tz4yJ-54" value="Part N" style="edgeStyle=none;orthogonalLoop=1;jettySize=auto;html=1;rounded=0;entryX=-0.022;entryY=1.028;entryDx=0;entryDy=0;entryPerimeter=0;" parent="1" source="un962oAQaWNZtfebDjYD-3" target="un962oAQaWNZtfebDjYD-48" edge="1">
          <mxGeometry width="100" relative="1" as="geometry">
            <mxPoint x="206" y="491" as="sourcePoint" />
            <mxPoint x="306" y="491" as="targetPoint" />
            <Array as="points" />
          </mxGeometry>
        </mxCell>
        <mxCell id="fX9wjA_ceiBuTS8Tz4yJ-56" value="Videos" style="rounded=1;whiteSpace=wrap;html=1;absoluteArcSize=1;arcSize=14;strokeWidth=2;" parent="1" vertex="1">
          <mxGeometry x="230" y="196" width="85" height="43" as="geometry" />
        </mxCell>
        <mxCell id="fX9wjA_ceiBuTS8Tz4yJ-58" style="edgeStyle=orthogonalEdgeStyle;rounded=0;orthogonalLoop=1;jettySize=auto;html=1;exitX=1;exitY=0.75;exitDx=0;exitDy=0;entryX=0.424;entryY=0.019;entryDx=0;entryDy=0;entryPerimeter=0;" parent="1" source="un962oAQaWNZtfebDjYD-30" target="un962oAQaWNZtfebDjYD-46" edge="1">
          <mxGeometry relative="1" as="geometry" />
        </mxCell>
        <mxCell id="fX9wjA_ceiBuTS8Tz4yJ-61" style="edgeStyle=orthogonalEdgeStyle;rounded=0;orthogonalLoop=1;jettySize=auto;html=1;exitX=0;exitY=0.5;exitDx=0;exitDy=0;entryX=0.509;entryY=0.151;entryDx=0;entryDy=0;entryPerimeter=0;" parent="1" source="fX9wjA_ceiBuTS8Tz4yJ-56" target="un962oAQaWNZtfebDjYD-3" edge="1">
          <mxGeometry relative="1" as="geometry" />
        </mxCell>
      </root>
    </mxGraphModel>
  </diagram>
</mxfile>
